<svg width="671" height="647" viewBox="0 0 671 647" fill="none" xmlns="http://www.w3.org/2000/svg">
<g clip-path="url(#clip0_589_4887)">
<path d="M103 710C103.587 707.788 107.047 705.006 108.414 703.556C114.055 697.555 120.197 692.05 126.772 687.102C137.401 679.034 148.731 671.946 160.624 665.923C174.796 658.663 189.661 653.905 204.505 648.61C234.31 637.988 265.248 629.16 293.836 614.886C313.838 604.909 333.348 592.203 348 573C344.249 575.231 340.34 577.184 336.306 578.843C325.586 583.626 314.455 587.419 303.052 590.173C289.478 593.395 275.286 594.351 261.467 596.671C214.532 604.565 162.515 617.313 128.854 659.554C117.662 673.634 107.88 691.527 103 710Z" fill="#0C99E6"/>
<path d="M150 609C151.335 605.428 160.063 601.867 162.724 600.419C176.387 592.836 191.152 587.988 205.948 584.47C250.817 573.744 297.353 577.08 340.556 556.841C345.092 554.711 349.514 552.345 353.804 549.751L355 549C353.291 549.225 349.434 549.354 347.597 549.451C344.406 549.622 341.201 549.762 337.982 549.869C331.818 550.094 325.664 550.212 319.5 550.266C307.193 550.384 294.929 550.266 282.568 550.126C260.229 549.912 237.207 548.217 215.146 553.172C197.332 556.98 181.145 566.275 168.845 579.762C165.293 583.682 162.036 587.862 159.102 592.268C155.439 597.476 152.385 603.091 150 609Z" fill="#5CBFF4"/>
<path d="M359 532.616C359 532.616 355.664 533.36 353.91 533.655C337.01 536.491 319.793 536.756 302.817 534.442C232.241 524.272 211.924 533.666 204 534.224C221.109 516.53 245.276 507.114 267.796 508.066C284.97 508.787 301.759 513.687 318.151 519.505C326.364 522.424 334.47 526 342.746 528.614C347.152 530.002 354.348 532.124 359 532.616Z" fill="#A6E4FF"/>
<path d="M348 602C347.413 604.197 343.942 606.96 342.586 608.4C336.943 614.358 330.801 619.825 324.229 624.741C313.599 632.757 302.266 639.797 290.367 645.776C276.208 652.987 261.343 657.712 246.489 662.971C216.695 673.52 185.759 682.288 157.173 696.453C137.172 706.373 117.662 718.992 103 738C106.773 735.791 110.699 733.852 114.747 732.197C125.467 727.45 136.597 723.687 148 720.955C161.572 717.755 175.764 716.805 189.583 714.555C236.504 706.715 288.531 694.053 322.179 652.101C333.328 638.107 343.12 620.315 348 602Z" fill="#0C99E6"/>
<path d="M217 400C217.587 397.787 221.047 395.014 222.414 393.553C228.061 387.555 234.202 382.048 240.772 377.091C251.401 369.023 262.731 361.935 274.625 355.913C288.796 348.638 303.661 343.878 318.505 338.581C348.31 327.965 379.248 319.132 407.836 304.852C427.838 294.859 447.348 282.148 462 263C458.227 265.226 454.301 267.179 450.253 268.845C439.532 273.628 428.402 277.418 416.998 280.171C403.425 283.394 389.179 284.361 375.414 286.618C328.479 294.515 276.461 307.27 242.801 349.541C231.663 363.628 221.912 381.529 217 400Z" fill="#0C99E6"/>
<path d="M462 291C461.413 293.148 457.942 295.983 456.586 297.444C450.942 303.443 444.801 308.947 438.229 313.898C427.601 321.972 416.268 329.061 404.367 335.077C390.208 342.337 375.343 347.106 360.489 352.39C330.695 363.012 299.759 371.84 271.173 386.114C251.172 396.102 231.662 408.797 217 428C220.771 425.771 224.697 423.819 228.747 422.157C239.467 417.377 250.597 413.588 262 410.837C275.572 407.562 289.817 406.649 303.582 404.329C350.504 396.446 402.531 383.697 436.179 341.446C447.285 327.355 457.12 309.494 462 291Z" fill="#0C99E6"/>
<path d="M416 392C414.675 395.572 405.933 399.133 403.283 400.581C389.615 408.164 374.846 413.012 360.045 416.53C315.162 427.202 268.611 423.92 225.448 444.17C220.909 446.292 216.486 448.655 212.197 451.249L211 452C212.71 451.785 216.557 451.646 218.395 451.55C221.601 451.378 224.807 451.238 228.013 451.131C234.168 450.906 240.335 450.788 246.49 450.734C258.812 450.616 271.069 450.734 283.444 450.874C305.79 451.088 328.819 452.783 350.887 447.828C368.708 444.022 384.9 434.727 397.202 421.239C400.752 417.315 404.01 413.135 406.949 408.732C410.594 403.521 413.631 397.907 416 392Z" fill="#5CBFF4"/>
<path d="M207 468.384C207 468.384 210.304 467.64 212.057 467.345C228.845 464.509 245.947 464.244 262.81 466.558C332.93 476.728 353.117 467.334 361 466.776C344.054 484.47 319.99 493.886 297.615 492.934C280.552 492.213 263.872 487.313 247.585 481.496C239.426 478.576 231.372 475 223.149 472.386C218.761 471.03 211.622 468.843 207 468.384Z" fill="#A6E4FF"/>
<path d="M-46 578C-45.4102 575.803 -41.936 573.051 -40.5635 571.6C-34.8937 565.646 -28.7276 560.179 -22.1313 555.259C-11.4588 547.249 -0.0823212 540.213 11.8598 534.235C26.0888 527.013 41.0146 522.288 55.9192 517.029C85.8462 506.491 116.91 497.723 145.615 483.547C165.698 473.627 185.288 461.008 200 442C196.211 444.209 192.27 446.148 188.205 447.803C177.441 452.55 166.264 456.313 154.814 459.045C141.186 462.245 126.882 463.205 113.06 465.445C65.9342 473.285 13.7041 485.946 -20.0938 527.909C-31.2776 541.893 -41.0676 559.664 -46 578Z" fill="#0C99E6"/>
<path d="M1 478C2.33575 474.438 11.0661 470.866 13.7269 469.418C27.3943 461.844 42.1623 456.984 56.9624 453.466C101.844 442.792 148.392 446.074 191.553 425.831C196.094 423.71 200.517 421.343 204.803 418.74L206 418C204.29 418.215 200.433 418.343 198.595 418.44C195.403 418.612 192.197 418.755 188.977 418.869C182.811 419.084 176.656 419.202 170.49 419.266C158.18 419.384 145.913 419.266 133.549 419.126C111.204 418.901 88.1763 417.206 66.1097 422.162C48.2906 425.971 32.0998 435.268 19.7965 448.756C16.2484 452.682 12.9913 456.862 10.051 461.265C6.40596 466.477 3.36909 472.092 1 478Z" fill="#5CBFF4"/>
<path d="M210 400.727C210 400.727 206.664 401.444 204.91 401.729C188.011 404.472 170.793 404.732 153.817 402.499C83.2945 392.692 62.9238 401.74 55 402.277C72.1094 385.215 96.2762 376.146 118.796 377.063C135.97 377.759 152.759 382.473 169.151 388.094C177.364 390.899 185.47 394.358 193.746 396.868C198.152 398.207 205.348 400.253 210 400.727Z" fill="#A6E4FF"/>
<path d="M200 470C199.41 472.132 195.925 474.947 194.564 476.397C188.897 482.352 182.731 487.816 176.132 492.731C165.461 500.746 154.081 507.783 142.132 513.755C127.914 520.963 112.989 525.696 98.0744 530.942C68.1594 541.486 37.0972 550.25 8.39383 564.42C-11.6889 574.335 -31.2784 586.937 -46 606C-42.2137 603.788 -38.272 601.849 -34.2056 600.2C-23.4417 595.455 -12.2661 591.694 -0.81665 588.963C12.8113 585.764 27.1147 584.805 40.9356 582.502C88.0491 574.676 140.288 562.021 174.074 520.078C185.225 506.09 195.1 488.359 200 470Z" fill="#0C99E6"/>
<path d="M153 571C151.675 574.512 142.933 578.014 140.283 579.438C126.615 586.894 111.846 591.662 97.0452 595.121C52.1617 605.615 5.61118 602.388 -37.5518 622.301C-42.0911 624.387 -46.5144 626.711 -50.803 629.262L-52 630C-50.2901 629.789 -46.4431 629.652 -44.605 629.557C-41.399 629.388 -38.1931 629.251 -34.9871 629.146C-28.8316 628.924 -22.6655 628.808 -16.51 628.756C-4.18845 628.64 8.06909 628.756 20.4441 628.893C42.7897 629.104 65.819 630.77 87.8867 625.897C105.708 622.155 121.9 613.015 134.202 599.751C137.752 595.894 141.01 591.783 143.949 587.453C147.594 582.329 150.631 576.808 153 571Z" fill="#5CBFF4"/>
<path d="M-56 647.263C-56 647.263 -52.6744 646.546 -50.91 646.261C-34.0136 643.527 -16.8001 643.271 0.172081 645.502C70.748 655.309 91.0656 646.251 99 645.713C81.9441 662.775 57.7236 671.854 35.2034 670.937C18.03 670.241 1.24159 665.516 -15.1513 659.906C-23.3638 657.091 -31.4693 653.643 -39.7459 651.122C-44.1623 649.815 -51.3484 647.706 -56 647.263Z" fill="#A6E4FF"/>
<path d="M69 268C69.5874 265.803 73.0475 263.051 74.4144 261.6C80.0612 255.646 86.2021 250.179 92.7717 245.259C103.401 237.249 114.731 230.213 126.625 224.235C140.796 217.013 155.661 212.288 170.505 207.029C200.31 196.49 231.248 187.723 259.836 173.547C279.838 163.627 299.348 151.008 314 132C310.227 134.209 306.301 136.148 302.253 137.803C291.532 142.55 280.402 146.313 268.998 149.045C255.425 152.245 241.179 153.205 227.414 155.445C180.479 163.285 128.461 175.946 94.8009 217.909C83.6626 231.893 73.9124 249.664 69 268Z" fill="#0C99E6"/>
<path d="M115 168C116.336 164.438 125.066 160.866 127.727 159.418C141.394 151.844 156.162 146.984 170.962 143.466C215.844 132.792 262.392 136.074 305.553 115.831C310.094 113.71 314.517 111.343 318.803 108.74L320 108C318.29 108.215 314.433 108.343 312.595 108.44C309.403 108.612 306.197 108.755 302.977 108.869C296.811 109.084 290.656 109.202 284.49 109.266C272.18 109.384 259.913 109.266 247.549 109.126C225.204 108.901 202.176 107.206 180.11 112.162C162.291 115.971 146.1 125.268 133.797 138.756C130.248 142.682 126.991 146.862 124.051 151.265C120.406 156.477 117.369 162.092 115 168Z" fill="#5CBFF4"/>
<path d="M325 90.7272C325 90.7272 321.664 91.4443 319.91 91.729C303.011 94.4724 285.793 94.7318 268.817 92.4988C198.295 82.6916 177.924 91.7396 170 92.2774C187.109 75.2149 211.276 66.146 233.796 67.0634C250.97 67.7594 267.759 72.4732 284.151 78.0939C292.364 80.8989 300.47 84.3579 308.746 86.8677C313.152 88.207 320.348 90.2527 325 90.7272Z" fill="#A6E4FF"/>
<path d="M314 160C313.413 162.132 309.942 164.947 308.586 166.397C302.942 172.352 296.801 177.816 290.229 182.731C279.601 190.746 268.268 197.783 256.367 203.755C242.208 210.963 227.343 215.696 212.489 220.942C182.695 231.486 151.759 240.25 123.173 254.42C103.172 264.335 83.6618 276.937 69 296C72.7709 293.788 76.6966 291.849 80.7465 290.2C91.4666 285.455 102.597 281.694 114 278.963C127.572 275.711 141.817 274.805 155.582 272.502C202.504 264.676 254.531 252.021 288.179 210.078C299.285 196.09 309.12 178.359 314 160Z" fill="#0C99E6"/>
<path d="M267 261C265.675 264.512 256.933 268.014 254.283 269.438C240.615 276.894 225.846 281.662 211.045 285.121C166.162 295.615 119.611 292.388 76.4482 312.301C71.9089 314.387 67.4856 316.711 63.197 319.262L62 320C63.7099 319.789 67.5569 319.652 69.395 319.557C72.601 319.388 75.8069 319.251 79.0129 319.146C85.1684 318.924 91.3345 318.808 97.49 318.756C109.812 318.64 122.069 318.755 134.444 318.893C156.79 319.103 179.819 320.77 201.887 315.897C219.708 312.155 235.9 303.015 248.202 289.751C251.752 285.894 255.01 281.783 257.949 277.453C261.594 272.329 264.631 266.808 267 261Z" fill="#5CBFF4"/>
<path d="M58 337.263C58 337.263 61.3256 336.546 63.09 336.261C79.9864 333.527 97.1999 333.271 114.172 335.502C184.748 345.309 205.066 336.251 213 335.713C195.944 352.775 171.724 361.854 149.203 360.937C132.03 360.241 115.242 355.517 98.8487 349.907C90.6362 347.091 82.5307 343.643 74.2541 341.122C69.8377 339.815 62.6516 337.706 58 337.263Z" fill="#A6E4FF"/>
<path d="M-194 447C-193.413 444.787 -189.953 442.014 -188.586 440.553C-182.939 434.555 -176.798 429.048 -170.228 424.091C-159.599 416.023 -148.269 408.935 -136.375 402.913C-122.204 395.638 -107.339 390.878 -92.4951 385.581C-62.6898 374.965 -31.7523 366.132 -3.16434 351.852C16.8376 341.859 36.3483 329.148 51 310C47.2267 312.226 43.3012 314.179 39.253 315.845C28.5325 320.628 17.4015 324.418 5.99814 327.171C-7.57499 330.394 -21.8208 331.361 -35.5862 333.618C-82.5208 341.515 -134.539 354.27 -168.199 396.541C-179.337 410.628 -189.088 428.529 -194 447Z" fill="#0C99E6"/>
<path d="M-147 346C-145.664 342.438 -136.934 338.866 -134.273 337.418C-120.606 329.844 -105.838 324.984 -91.0376 321.466C-46.1564 310.792 0.391769 314.074 43.5525 293.831C48.0939 291.71 52.5174 289.343 56.8033 286.74L58 286C56.2902 286.215 52.4327 286.343 50.5947 286.44C47.4031 286.612 44.1973 286.755 40.9773 286.869C34.8115 287.084 28.6563 287.202 22.4905 287.266C10.1802 287.384 -2.08741 287.266 -14.4511 287.126C-36.7955 286.901 -59.8237 285.206 -81.8903 290.162C-99.7094 293.971 -115.9 303.268 -128.203 316.756C-131.752 320.682 -135.009 324.862 -137.949 329.265C-141.594 334.477 -144.631 340.092 -147 346Z" fill="#5CBFF4"/>
<path d="M62 269.606C62 269.606 58.6637 270.35 56.91 270.645C40.011 273.49 22.7932 273.759 5.81712 271.443C-64.7055 261.273 -85.0762 270.656 -93 271.214C-75.8906 253.519 -51.7238 244.114 -29.2036 245.066C-12.0301 245.788 4.75857 250.676 21.1515 256.505C29.364 259.414 37.4695 263.001 45.7462 265.604C50.1518 266.992 57.3484 269.114 62 269.606Z" fill="#A6E4FF"/>
<path d="M51 338C50.4127 340.148 46.942 342.983 45.5859 344.444C39.9424 350.443 33.8014 355.947 27.2293 360.898C16.6014 368.972 5.26776 376.061 -6.6326 382.077C-20.7925 389.337 -35.6572 394.106 -50.5112 399.39C-80.3046 410.012 -111.241 418.84 -139.827 433.114C-159.828 443.102 -179.338 455.797 -194 475C-190.229 472.771 -186.303 470.819 -182.253 469.157C-171.533 464.377 -160.403 460.588 -149 457.837C-135.428 454.562 -121.183 453.649 -107.418 451.329C-60.4958 443.446 -8.46928 430.697 25.1791 388.446C36.2849 374.355 46.1199 356.494 51 338Z" fill="#0C99E6"/>
<path d="M4 439C2.67487 442.572 -6.06688 446.133 -8.71714 447.581C-22.3852 455.164 -37.154 460.012 -51.9548 463.53C-96.8383 474.202 -143.389 470.92 -186.552 491.17C-191.091 493.292 -195.514 495.655 -199.803 498.249L-201 499C-199.29 498.785 -195.443 498.646 -193.605 498.55C-190.399 498.378 -187.193 498.238 -183.987 498.131C-177.832 497.906 -171.665 497.788 -165.51 497.734C-153.188 497.616 -140.931 497.734 -128.556 497.874C-106.21 498.088 -83.181 499.783 -61.1133 494.828C-43.2925 491.022 -27.1003 481.727 -14.7977 468.239C-11.2476 464.315 -7.98998 460.135 -5.05147 455.732C-1.406 450.521 1.63104 444.907 4 439Z" fill="#5CBFF4"/>
<path d="M-80 137C-79.421 134.852 -75.9363 132.017 -74.5638 130.556C-68.9007 124.558 -62.7377 119.053 -56.142 114.102C-45.4686 106.03 -34.0885 98.9419 -22.1404 92.923C-7.91136 85.6627 7.00374 80.894 21.919 75.6099C51.8353 64.988 82.8991 56.1598 111.615 41.8862C131.698 31.898 151.288 19.1925 166 0C162.23 2.22453 158.306 4.17694 154.259 5.84253C143.491 10.6227 132.311 14.4117 120.857 17.1626C107.229 20.4383 92.9248 21.351 79.1032 23.6601C31.9877 31.5541 -20.2425 44.3026 -54.0404 86.554C-65.2778 100.645 -75.0997 118.538 -80 137Z" fill="#0C99E6"/>
<path d="M166 28C165.421 30.2133 161.936 32.9853 160.574 34.4465C154.902 40.4456 148.737 45.9552 142.142 50.9173C131.466 58.9852 120.086 66.0728 108.14 72.0942C93.9114 79.3681 78.996 84.1279 64.0807 89.4248C34.1644 100.04 3.10088 108.872 -25.6038 123.151C-45.6981 133.143 -65.2777 145.854 -80 165C-76.2275 162.779 -72.3041 160.826 -68.2587 159.155C-57.4908 154.373 -46.3111 150.582 -34.8576 147.83C-21.2291 144.607 -6.97839 143.64 6.89677 141.384C54.0123 133.487 106.253 120.734 140.04 78.4657C151.278 64.3693 161.1 46.4694 166 28Z" fill="#0C99E6"/>
<path d="M119 129C117.665 132.572 108.936 136.145 106.286 137.582C92.6219 145.156 77.846 150.005 63.0597 153.534C18.1879 164.208 -28.3613 160.915 -71.5558 181.169C-76.0951 183.288 -80.5173 185.652 -84.8036 188.249L-86 189C-84.2906 188.785 -80.4445 188.657 -78.6069 188.55C-75.4018 188.392 -72.1967 188.253 -68.9915 188.131C-62.8377 187.916 -56.6731 187.799 -50.5193 187.734C-38.2116 187.616 -25.8934 187.734 -13.5857 187.874C8.76478 188.099 31.7884 189.794 53.8504 184.838C71.6628 181.023 87.8459 171.723 100.143 158.233C103.693 154.314 106.95 150.136 109.887 145.735C113.557 140.528 116.615 134.912 119 129Z" fill="#5CBFF4"/>
<path d="M-90 205.394C-90 205.394 -86.6741 204.65 -84.9203 204.355C-68.0202 201.51 -50.8012 201.241 -33.8239 203.557C36.7035 213.727 57.0757 204.344 65 203.786C47.9429 221.481 23.7316 230.886 1.20989 229.934C-15.9755 229.212 -32.7546 224.324 -49.1593 218.495C-57.3617 215.586 -65.4678 211.999 -73.7557 209.397C-78.1617 208.008 -85.3481 205.886 -90 205.394Z" fill="#A6E4FF"/>
</g>
<defs>
<clipPath id="clip0_589_4887">
<rect width="671" height="647" fill="white"/>
</clipPath>
</defs>
</svg>
