<svg width="667" height="465" viewBox="0 0 667 465" fill="none" xmlns="http://www.w3.org/2000/svg">
<g clip-path="url(#clip0_773_37164)">
<path d="M588.13 572.915C588.678 570.882 591.98 568.199 593.27 566.817C598.642 561.142 604.484 555.934 610.735 551.246C620.848 543.608 631.63 536.9 642.951 531.204C656.433 524.334 670.564 519.821 684.696 514.821C713.042 504.769 742.474 496.415 769.671 482.908C788.71 473.456 807.262 461.433 821.211 443.271C817.622 445.378 813.888 447.225 810.035 448.799C799.833 453.323 789.24 456.908 778.388 459.512C765.475 462.561 751.973 463.475 738.827 465.61C694.185 473.08 644.698 485.144 612.675 525.126C602.079 538.512 592.773 555.434 588.13 572.915Z" fill="#0C99E6"/>
<path d="M632.538 477.175C633.808 473.791 642.109 470.417 644.628 469.045C657.622 461.859 671.673 457.265 685.734 453.932C728.404 443.819 772.669 446.929 813.745 427.741C818.061 425.732 822.267 423.493 826.343 421.033L827.48 420.321C825.855 420.525 822.198 420.657 820.45 420.748C817.402 420.911 814.354 421.043 811.306 421.145C805.455 421.348 799.599 421.473 793.74 421.521C782.037 421.632 770.323 421.521 758.619 421.388C737.365 421.185 715.481 419.579 694.491 424.275C677.552 427.881 662.162 436.689 650.47 449.47C647.092 453.185 643.995 457.146 641.204 461.32C637.714 466.253 634.806 471.574 632.538 477.175Z" fill="#5CBFF4"/>
<path d="M447.058 447.701C447.616 445.608 450.918 442.975 452.209 441.603C457.578 435.927 463.42 430.718 469.673 426.033C479.798 418.408 490.591 411.714 501.919 406.031C515.391 399.161 529.533 394.659 543.665 389.648C572.011 379.596 601.443 371.242 628.64 357.745C647.679 348.293 666.231 336.27 680.18 318.159C676.59 320.264 672.855 322.111 669.004 323.688C658.805 328.211 648.216 331.797 637.367 334.4C624.454 337.449 610.901 338.353 597.806 340.549C553.164 348.019 503.667 360.083 471.654 400.055C461.047 413.318 451.731 430.251 447.058 447.701Z" fill="#0C99E6"/>
<path d="M491.503 351.973C492.763 348.588 501.073 345.214 503.593 343.842C516.587 336.656 530.638 332.062 544.699 328.729C587.369 318.566 631.624 321.726 672.659 302.548C676.974 300.534 681.18 298.292 685.257 295.83L686.395 295.119C684.769 295.332 681.111 295.454 679.364 295.546C676.316 295.708 673.268 295.84 670.22 295.942C664.368 296.155 658.506 296.267 652.655 296.328C640.941 296.44 629.287 296.328 617.523 296.196C596.279 295.982 574.385 294.377 553.405 299.072C536.465 302.682 521.072 311.49 509.374 324.267C505.999 327.985 502.902 331.945 500.108 336.118C496.642 341.056 493.755 346.376 491.503 351.973Z" fill="#5CBFF4"/>
<path d="M690.289 279.213C690.289 279.213 687.129 279.904 685.453 280.229C669.4 282.865 653.046 283.111 636.921 280.961C569.867 271.509 550.564 280.24 543.026 280.758C559.23 264.314 582.242 255.563 603.638 256.447C619.954 257.128 635.905 261.671 651.479 267.078C659.282 269.792 666.983 273.115 674.847 275.544C679.042 276.784 685.87 278.756 690.289 279.213Z" fill="#A6E4FF"/>
<path d="M680.129 344.758C679.57 346.851 676.279 349.484 674.978 350.856C669.611 356.535 663.768 361.744 657.514 366.426C647.402 374.061 636.623 380.769 625.308 386.468C611.826 393.339 597.684 397.841 583.562 402.852C555.207 412.903 525.774 421.257 498.577 434.754C479.548 444.206 460.987 456.23 447.048 474.392C450.637 472.286 454.372 470.439 458.223 468.863C468.422 464.339 479.011 460.754 489.86 458.151C502.773 455.102 516.326 454.197 529.422 452.053C574.073 444.582 623.56 432.518 655.583 392.546C666.18 379.161 675.486 362.239 680.129 344.758Z" fill="#0C99E6"/>
<path d="M635.719 440.516C634.449 443.901 626.149 447.275 623.619 448.647C610.625 455.832 596.584 460.426 582.513 463.76C539.843 473.923 495.587 470.762 454.553 489.941C450.237 491.955 446.032 494.197 441.955 496.659L440.817 497.37C442.443 497.157 446.11 497.035 447.858 496.943C450.899 496.781 453.947 496.649 457.001 496.547C462.864 496.334 468.715 496.222 474.578 496.161C486.281 496.049 497.944 496.161 509.699 496.293C530.953 496.506 552.837 498.112 573.816 493.417C590.758 489.809 606.151 481.001 617.848 468.221C621.226 464.507 624.323 460.546 627.114 456.371C630.579 451.433 633.466 446.113 635.719 440.516Z" fill="#5CBFF4"/>
<path d="M241.577 521.701C242.837 518.317 251.147 514.943 253.667 513.57C266.661 506.385 280.712 501.791 294.773 498.457C337.443 488.294 381.698 491.455 422.733 472.277C427.049 470.263 431.254 468.02 435.331 465.559L436.469 464.847C434.843 465.061 431.186 465.183 429.438 465.274C426.39 465.437 423.342 465.569 420.295 465.67C414.443 465.884 408.581 465.996 402.729 466.057C391.015 466.168 379.362 466.057 367.597 465.925C346.353 465.711 324.459 464.105 303.48 468.801C286.539 472.41 271.147 481.218 259.448 493.996C256.073 497.713 252.976 501.674 250.182 505.846C246.717 510.784 243.829 516.104 241.577 521.701Z" fill="#5CBFF4"/>
<path d="M440.359 448.942C440.359 448.942 437.2 449.633 435.523 449.958C419.47 452.593 403.116 452.84 386.991 450.69C319.938 441.238 300.635 449.968 293.096 450.486C309.301 434.042 332.312 425.291 353.708 426.176C370.025 426.857 385.975 431.4 401.55 436.807C409.352 439.52 417.053 442.844 424.917 445.273C429.113 446.513 435.94 448.484 440.359 448.942Z" fill="#A6E4FF"/>
<path d="M305.839 322.692C306.398 320.598 309.7 317.966 310.99 316.594C316.359 310.917 322.202 305.708 328.454 301.024C338.579 293.399 349.372 286.705 360.701 281.022C374.172 274.152 388.315 269.649 402.447 264.639C430.792 254.587 460.224 246.233 487.421 232.736C506.46 223.284 525.012 211.261 538.961 193.15C535.371 195.254 531.637 197.102 527.785 198.678C517.586 203.202 506.997 206.787 496.149 209.391C483.236 212.44 469.683 213.344 456.587 215.539C411.946 223.01 362.448 235.074 330.435 275.046C319.829 288.309 310.512 305.241 305.839 322.692Z" fill="#0C99E6"/>
<path d="M350.284 226.964C351.544 223.579 359.854 220.205 362.374 218.833C375.368 211.648 389.419 207.054 403.48 203.72C446.15 193.557 490.405 196.718 531.44 177.539C535.756 175.525 539.961 173.283 544.038 170.821L545.176 170.11C543.55 170.323 539.893 170.445 538.145 170.537C535.097 170.699 532.049 170.831 529.002 170.933C523.15 171.146 517.288 171.258 511.436 171.319C499.722 171.431 488.069 171.319 476.304 171.187C455.06 170.974 433.166 169.368 412.187 174.063C395.246 177.673 379.854 186.481 368.155 199.258C364.78 202.976 361.683 206.937 358.889 211.109C355.424 216.047 352.536 221.367 350.284 226.964Z" fill="#5CBFF4"/>
<path d="M549.07 154.204C549.07 154.204 545.911 154.895 544.234 155.22C528.181 157.856 511.827 158.102 495.702 155.952C428.649 146.5 409.345 155.23 401.807 155.749C418.012 139.304 441.023 130.554 462.419 131.438C478.736 132.119 494.686 136.662 510.261 142.069C518.063 144.782 525.764 148.106 533.628 150.535C537.824 151.775 544.651 153.746 549.07 154.204Z" fill="#A6E4FF"/>
<path d="M538.91 219.747C538.351 221.841 535.06 224.473 533.759 225.845C528.393 231.524 522.55 236.733 516.295 241.415C506.183 249.05 495.404 255.758 484.089 261.458C470.607 268.328 456.465 272.83 442.343 277.841C413.988 287.893 384.556 296.247 357.358 309.744C338.329 319.196 319.768 331.219 305.829 349.33C309.419 347.225 313.153 345.377 317.004 343.801C327.203 339.278 337.793 335.692 348.641 333.089C361.554 330.04 375.107 329.135 388.203 326.94C432.854 319.47 482.342 307.406 514.365 267.434C524.961 254.15 534.267 237.228 538.91 219.747Z" fill="#0C99E6"/>
<path d="M494.5 315.506C493.23 318.891 484.93 322.265 482.4 323.637C469.406 330.822 455.365 335.416 441.294 338.75C398.624 348.863 354.369 345.753 313.334 364.931C309.018 366.945 304.813 369.187 300.736 371.649L299.599 372.36C301.224 372.147 304.892 372.025 306.639 371.933C309.68 371.771 312.728 371.639 315.783 371.537C321.645 371.324 327.497 371.212 333.359 371.151C345.063 371.039 356.726 371.151 368.48 371.283C389.734 371.496 411.618 373.102 432.598 368.407C449.539 364.799 464.932 355.991 476.629 343.212C480.008 339.497 483.104 335.536 485.895 331.361C489.36 326.423 492.248 321.103 494.5 315.506Z" fill="#5CBFF4"/>
<path d="M295.674 388.267C295.674 388.267 298.844 387.576 300.51 387.25C316.567 384.615 332.924 384.368 349.053 386.519C416.055 395.971 435.409 387.24 442.938 386.722C426.733 403.166 403.722 411.917 382.325 411.033C366.009 410.352 350.058 405.809 334.484 400.402C326.681 397.688 318.98 394.365 311.117 391.936C306.962 390.696 300.124 388.755 295.674 388.267Z" fill="#A6E4FF"/>
<path d="M566.512 152.872C567.061 150.839 570.363 148.156 571.663 146.774C577.029 141.098 582.868 135.889 589.118 131.204C599.23 123.565 610.013 116.857 621.334 111.162C634.815 104.291 648.947 99.7787 663.079 94.7783C691.424 84.7267 720.857 76.3725 748.064 62.8654C767.093 53.4134 785.655 41.3902 799.594 23.2282C796.022 25.3333 792.304 27.1809 788.469 28.757C778.267 33.2805 767.674 36.8661 756.822 39.4693C743.909 42.5691 730.356 43.4328 717.26 45.6179C672.619 53.088 623.132 65.152 591.109 105.135C580.462 118.469 571.155 135.401 566.512 152.872Z" fill="#0C99E6"/>
<path d="M610.919 57.123C612.189 53.7386 620.489 50.3644 623.009 48.9923C636.003 41.817 650.053 37.2233 664.114 33.8897C706.785 23.7771 751.05 26.8871 792.075 7.69866C796.391 5.69051 800.596 3.45123 804.672 0.990734L805.82 0.279346C804.185 0.482613 800.527 0.614658 798.78 0.706127C795.732 0.868744 792.684 1.00101 789.636 1.10264C783.784 1.30591 777.929 1.43113 772.07 1.47855C760.366 1.59035 748.703 1.47868 736.949 1.34655C715.695 1.14328 693.811 -0.462688 672.821 4.23279C655.882 7.83865 640.492 16.6471 628.8 29.4278C625.421 33.1426 622.325 37.1039 619.534 41.2785C616.062 46.2106 613.171 51.5272 610.919 57.123Z" fill="#5CBFF4"/>
<path d="M799.539 49.9068C798.99 52.0004 795.689 54.6226 794.398 56.0048C789.024 61.6795 783.182 66.8912 776.934 71.5851C766.818 79.2168 756.036 85.9212 744.718 91.6171C731.236 98.4977 717.104 103 702.972 108.011C674.627 118.052 645.195 126.406 617.997 139.913C598.958 149.365 580.407 161.389 566.458 179.5C570.032 177.399 573.749 175.551 577.582 173.971C587.785 169.447 598.378 165.862 609.23 163.259C622.142 160.21 635.645 159.295 648.791 157.161C693.432 149.691 742.93 137.627 774.943 97.6441C785.59 84.3098 794.896 67.3776 799.539 49.9068Z" fill="#0C99E6"/>
<path d="M755.137 145.656C753.867 149.041 745.566 152.425 743.047 153.787C730.053 160.962 716.002 165.556 701.941 168.9C659.271 179.012 615.005 175.892 573.93 195.081C569.614 197.089 565.408 199.328 561.332 201.789L560.195 202.5C561.82 202.297 565.477 202.175 567.225 202.073C570.273 201.924 573.321 201.792 576.369 201.677C582.22 201.473 588.083 201.362 593.935 201.301C605.638 201.189 617.352 201.301 629.056 201.433C650.31 201.646 672.204 203.252 693.184 198.557C710.122 194.943 725.511 186.132 737.205 173.352C740.581 169.638 743.678 165.681 746.471 161.511C749.96 156.578 752.868 151.258 755.137 145.656Z" fill="#5CBFF4"/>
<path d="M556.352 218.426C556.352 218.426 559.512 217.735 561.178 217.461C577.234 214.817 593.592 214.567 609.721 216.719C676.723 226.171 696.077 217.45 703.605 216.932C687.401 233.376 664.4 242.117 643.004 241.233C626.677 240.562 610.737 236.019 595.152 230.602C587.359 227.898 579.658 224.565 571.785 222.146C567.599 220.855 560.772 218.883 556.352 218.426Z" fill="#A6E4FF"/>
</g>
<defs>
<clipPath id="clip0_773_37164">
<rect width="671" height="490" fill="white" transform="matrix(-1 0 0 1 671 0.5)"/>
</clipPath>
</defs>
</svg>
